<svg id="Capa_1" enable-background="new 0 0 512.102 512.102" height="512" viewBox="0 0 512.102 512.102" width="512" xmlns="http://www.w3.org/2000/svg"><path d="m97.142 140h189c22.056 0 40-17.944 40-40.074-.001-.179-.066-18.128-.066-39.926 0-33.084-26.916-60-60-60h-149c-33.084 0-60 26.916-60 60 0 21.875.065 39.894.066 40 0 22.056 17.944 40 40 40zm19.935-100h149c11.028 0 20 8.972 20 20 0 21.875.065 39.894.066 40l-189-.074c-.002-.178-.066-18.128-.066-39.926 0-11.028 8.971-20 20-20zm160 452c0 11.046-8.954 20-20 20h-206.911c-31.376.69-56.48-30.875-48.718-61.285 12.062-51.983 46.345-95.964 94.059-120.666 17.918-9.274 40.124-5.422 54 9.373 15.183 16.973 41.255 29.343 66.676 15.664 9.893-4.913 21.896-.874 26.807 9.021 4.912 9.894.873 21.896-9.021 26.807-42.525 22.454-88.904 4.039-113.636-24.126-1.691-1.803-4.337-2.302-6.437-1.216-37.291 19.306-64.075 53.635-73.484 94.185-1.354 6.467 3.127 12.1 9.753 12.243h206.911c11.046 0 20.001 8.954 20.001 20zm30.454-324.699c10.88 1.908 18.153 12.274 16.245 23.154-27.574 147.705-237.871 147.617-265.398 0-1.908-10.879 5.365-21.246 16.245-23.154 10.876-1.91 21.246 5.364 23.154 16.245 19.379 103.872 167.243 103.835 186.602 0 1.906-10.88 12.278-18.151 23.152-16.245zm185.273 132.03c-25.399-25.76-63.418-23.733-88.492-5.092-2.774 1.772-6.936 4.431-8.485 4.748-1.55-.317-5.711-2.976-8.485-4.748-25.314-18.821-63.47-20.546-88.977 5.334-12.651 12.798-19.5 29.986-19.287 48.399.475 40.93 19.397 109.814 39.754 144.832 17.1 31.022 61.706 23.218 68.678-13.199 1.182-4.67 2.092-9.82 3.056-15.269 1.059-5.989 2.971-16.798 5.362-23.417 2.539 6.725 4.589 17.9 5.721 24.07.957 5.216 1.861 10.147 2.994 14.62 6.976 36.423 51.588 44.206 68.678 13.193 19.821-34.115 38.266-102.993 38.75-144.831.216-18.577-6.627-35.852-19.267-48.64zm-50.31 166.341c-.493-2.405-.988-5.105-1.501-7.9-1.995-10.877-4.257-23.205-8.925-33.944-15.378-35.933-56.988-36.104-72.245-.148-4.569 10.64-6.734 22.886-8.646 33.69-.522 2.953-1.026 5.804-1.533 8.324-15.617-31.176-30.203-86.566-30.57-118.186-.088-7.641 2.659-14.678 7.737-19.815 4.903-4.961 11.604-7.693 18.868-7.693 7.313 0 12.413 3.02 20.126 7.948 20.977 14.652 39.098 14.625 60.039 0 7.714-4.928 12.813-7.948 20.126-7.948 9.106 0 15.023 4.052 18.383 7.451 5.068 5.127 7.809 12.25 7.719 20.057-.373 32.362-14.472 87.635-29.578 118.164z"/></svg>