<svg id="Capa_1" enable-background="new 0 0 512.086 512.086" height="512" viewBox="0 0 512.086 512.086" width="512" xmlns="http://www.w3.org/2000/svg"><path d="m381.802 459.943c-.143.244.133-.251 0 0zm-251.433 0c.143.244-.133-.251 0 0zm378.494-334.563c-6.325-15.392-20.894-25.337-37.114-25.337h-59.292l67.566-65.657c7.922-7.698 8.103-20.36.405-28.281s-20.359-8.103-28.281-.405l-67.792 65.877c-.025.024-.05.049-.076.074-11.728 11.518-15.352 28.627-9.234 43.589 6.162 15.067 20.833 24.803 37.376 24.803l59.147.001c.213.284.482.858.514 1.482.025.5-.082.606-.153.677l-64.844 63.556c-7.889 7.732-8.016 20.395-.284 28.283 7.736 7.892 20.399 8.012 28.283.284l64.908-63.619c11.878-11.746 15.36-29.538 8.871-45.327zm-32.011 130.24c-10.724-2.631-21.557 3.929-24.19 14.656-17.881 72.853-45.033 145.529-70.86 189.667-4.383 8.279-9.764 12.1-18.738 12.1-4.056 0-16.398 0-22.487-26.481-11.843-52.08-13.688-156.541-84.492-156.518-70.814-.018-72.652 104.474-84.49 156.518-6.089 26.481-18.432 26.481-22.487 26.481-8.975 0-14.355-3.821-18.738-12.1-45.428-77.636-89.342-234.11-90.361-321.976-.317-27.323 9.562-52.542 27.817-71.009 17.156-17.356 40.333-26.914 65.261-26.914 27.403 0 45.718 11.549 65.109 23.776 17.328 10.926 35.246 22.224 57.891 22.224 40.856-.408 63.801-34.453 101.776-43.578 25.435-7.225 16.481-44.215-9.552-38.843-23.024 5.662-40.389 16.642-55.71 26.33-14.218 8.99-25.448 16.091-36.514 16.091-11.087 0-22.327-7.087-36.556-16.06-52.442-38.345-127.742-43.855-180.155 8.855-25.827 26.128-39.808 61.497-39.366 99.591-.358 89.018 49.387 264.727 95.633 341.368 11.325 21.097 29.802 32.244 53.464 32.244 30.592 0 52.966-20.874 61.415-57.279 8.719-26.885 11.613-126.607 45.563-125.722 33.937-.896 36.834 98.745 45.565 125.722 8.448 36.405 30.822 57.279 61.415 57.279 23.663 0 42.141-11.147 53.465-32.246 27.577-47.262 56.29-123.835 74.98-199.986 2.632-10.727-3.93-21.557-14.658-24.19z"/></svg>