<svg id="Capa_1" enable-background="new 0 0 511.976 511.976" height="512" viewBox="0 0 511.976 511.976" width="512" xmlns="http://www.w3.org/2000/svg"><path d="m204.561 221.609-187.025 188.025c-23.382 23.382-23.382 61.427 0 84.809 23.4 23.397 61.445 23.367 84.846-.038l187.025-188.025c54.058-58.345-26.551-138.861-84.846-84.771zm-130.5 244.549c-19.438 18.004-46.254-8.849-28.203-28.278l131.002-131.701 28.24 28.24zm187.025-188.025-27.777 27.926-28.24-28.24 27.814-27.963c19.438-18.004 46.254 8.849 28.203 28.277zm150.886-278.126c-78.93-.761-127.434 90.321-83.403 155.119l-19.739 19.739c-7.811 7.811-7.811 20.474 0 28.284 7.81 7.811 20.474 7.811 28.284 0l19.739-19.739c64.821 44.038 155.882-4.492 155.118-83.404.001-55.139-44.859-99.999-99.999-99.999zm0 160c-33.084 0-60-26.916-60-60 3.017-79.489 116.995-79.467 120 .001 0 33.083-26.916 59.999-60 59.999z"/></svg>