<svg id="Capa_1" enable-background="new 0 0 512.004 512.004" height="512" viewBox="0 0 512.004 512.004" width="512" xmlns="http://www.w3.org/2000/svg"><path d="m286.301 326.759c1.864 25.883 2.443 55.157 2.623 70.302.104 8.74-3.223 16.979-9.368 23.197-12.081 12.752-34.012 12.782-46.131.068-6.138-6.174-9.489-14.369-9.437-23.075.072-12.088.438-43.14 2.266-70.343 1.021-15.186 2.313-26.821 3.953-35.571 1.142-6.093 2.427-10.694 4.045-14.479 9.107-21.349 34.623-21.393 43.822-.08 1.633 3.777 2.937 8.369 4.106 14.451 1.681 8.735 3.028 20.357 4.121 35.53zm-165.762 82.231c9.988-4.717 14.262-16.637 9.545-26.625-33.582-71.114-50.332-199.611-51.079-264.062-.254-21.925 7.654-42.141 22.268-56.925 13.688-13.847 32.187-21.473 52.09-21.473 21.958 0 36.862 9.303 52.641 19.153 36.794 24.983 63.231 24.959 99.992-.001 15.778-9.849 30.682-19.152 52.641-19.152 19.903 0 38.402 7.626 52.09 21.473 14.613 14.784 22.521 35 22.268 56.925-.747 64.452-17.498 192.948-51.079 264.062-4.717 9.988-.443 21.908 9.545 26.625 2.759 1.303 5.665 1.92 8.526 1.92 7.497 0 14.685-4.236 18.099-11.465 36.524-77.346 54.095-210.695 54.906-280.679.379-32.696-11.631-63.063-33.817-85.509-44.737-45.103-109.548-40.598-154.36-8.131-26.069 16.85-31.569 16.842-57.629 0-44.854-32.501-109.676-36.932-154.361 8.132-22.186 22.445-34.196 52.812-33.817 85.508.811 69.984 18.382 203.333 54.906 280.679 4.716 9.988 16.638 14.262 26.625 9.545zm390.494 89.055c-3.366 10.608-14.943 16.277-25.17 12.896-1.063-.339-60.371-19.036-127.864-19.036-11.674 0-26.729 4.217-42.668 8.681-17.705 4.959-35.332 11.319-59.332 11.319s-41.627-6.36-59.332-11.319c-15.939-4.464-30.994-8.681-42.668-8.681-67.766 0-127.281 18.848-127.874 19.039-10.512 3.377-21.776-2.405-25.158-12.915-3.381-10.509 2.385-21.769 12.892-25.158 2.654-.856 65.848-20.966 140.14-20.966v-193.938c-22.773-54.185-34.547-101.315-34.997-140.128-.175-15.051 6.641-24.219 10.72-28.344 4.324-4.374 11.937-9.59 23.64-9.59 10.052 0 17.303 4.248 31.459 13.084 48.075 33.023 94.43 32.918 142.355-.002 14.157-8.835 21.407-13.083 31.46-13.083 11.704 0 19.316 5.217 23.642 9.593 4.077 4.123 10.893 13.291 10.718 28.342-.45 38.821-12.223 87.564-34.997 144.916v189.15c74.292 0 137.486 20.11 140.14 20.966 10.512 3.391 16.285 14.662 12.894 25.174zm-193.034-235.231c-4.012-8.722-8.908-15.843-15.25-22.219-25.024-26.148-68.753-26.069-93.674.177-6.315 6.398-11.107 13.419-15.076 22.092v195.51c20.076 5.261 42.861 12.99 62 13.503 19.14-.513 41.923-8.242 62-13.503zm34.781-138.628c-1.821 1.111-3.474 2.143-4.422 2.735-59.555 41.001-125.339 40.879-184.717 0-.949-.593-2.603-1.625-4.426-2.738 1.291 25.485 8.129 55.472 20.398 89.509 42.526-43.993 111.108-42.771 153.523.784 11.667-34.728 18.357-65.391 19.644-90.29z"/></svg>