<svg id="Capa_1" enable-background="new 0 0 511.544 511.544" height="512" viewBox="0 0 511.544 511.544" width="512" xmlns="http://www.w3.org/2000/svg"><path d="m408.772 0c-75.885-.052-78.024 19.992-153 20-73.126.381-81.871-19.634-153-20.001-40.252 0-73 32.748-73 73v111c-1.492 95.8 65.072 186.593 156 215.005v42.996c3.53 92.76 136.503 92.69 140 0v-42.995c90.936-28.421 157.486-119.197 156-215.005v-111c0-40.252-32.747-73-73-73zm-153 60c41.944 0 63.367-5.469 83.98-10.791-2.579 7.46-3.98 15.465-3.98 23.791v107c-4.034 106.012-156.004 105.931-160 0v-107c0-8.061-1.313-15.821-3.737-23.077 20.155 4.942 43.747 10.077 83.737 10.077zm30 382c-1.513 39.754-58.501 39.724-60 0v-33.961c19.68 2.611 40.32 2.611 60 0zm156-258c-9.381 246.478-362.708 246.29-372 0v-111c1.664-43.73 64.351-43.697 66 0v107c6.052 159.018 234.005 158.897 240 0v-107c1.664-43.73 64.351-43.697 66 0zm-231-68c0-11.046 8.954-20 20-20h50c26.508.983 26.488 39.026 0 40h-50c-11.046 0-20-8.954-20-20zm0 70c0-11.046 8.954-20 20-20h50c26.508.983 26.488 39.026 0 40h-50c-11.046 0-20-8.954-20-20z"/></svg>