<svg id="Capa_1" enable-background="new 0 0 511.944 511.944" height="512" viewBox="0 0 511.944 511.944" width="512" xmlns="http://www.w3.org/2000/svg"><path d="m349.033 0c-6.753-.017-13.579.544-20.307 1.664-20.45 3.408-42.037 5.104-67.938 5.337-28.124.248-53.403-1.511-77.286-5.394-34.936-5.68-70.412 4.193-97.33 27.088-26.818 22.811-42.199 56.09-42.199 91.305v101.299c-.292 81.428 33.012 161.831 90.797 219.203l36.351 36.351c46.787 46.788 122.918 46.788 169.705 0l36.352-36.35c28.932-28.933 51.541-62.77 67.198-100.571 15.658-37.802 23.598-77.715 23.598-118.632v-101.542c-.001-65.876-53.358-119.599-118.941-119.758zm78.94 221.299c0 72.119-28.085 139.922-79.08 190.919l-36.352 36.35c-31.192 31.193-81.946 31.192-113.137 0l-36.35-36.351c-50.997-50.996-79.082-118.799-79.082-190.919v-101.298c0-23.464 10.247-45.638 28.115-60.835 17.955-15.326 41.911-21.872 64.996-18.076 26.148 4.251 53.639 6.189 84.065 5.91 28.034-.252 51.597-2.121 74.151-5.879 4.527-.754 9.133-1.13 13.636-1.12 43.58.105 79.036 35.884 79.036 79.758v101.541zm-121.104-96.299c-19.371 0-32.254 8.23-41.661 14.239-2.774 1.772-6.936 4.431-8.485 4.748-1.55-.317-5.711-2.976-8.485-4.748-44.059-32.985-108.18-5.328-108.264 53.732.475 40.929 19.396 109.814 39.755 144.832 17.1 31.023 61.709 23.218 68.679-13.2 1.182-4.67 2.093-9.82 3.056-15.269 1.06-5.988 2.971-16.796 5.362-23.415 2.538 6.725 4.589 17.898 5.72 24.068.957 5.216 1.862 10.147 2.994 14.62 6.977 36.424 51.588 44.209 68.679 13.195 19.821-34.115 38.265-102.994 38.75-144.83.216-18.578-6.627-35.853-19.267-48.641-12.324-12.465-28.955-19.331-46.833-19.331zm-3.479 185.672c-2.734-13.664-4.631-28.445-10.426-41.845-15.381-35.93-56.981-36.107-72.244-.148-5.737 13.422-7.498 28.316-10.179 42.015-15.617-31.177-30.203-86.567-30.569-118.186-.089-7.641 2.659-14.678 7.736-19.815 4.904-4.961 11.604-7.693 18.868-7.693 7.313 0 12.413 3.02 20.127 7.948 20.978 14.652 39.098 14.625 60.039 0 7.714-4.928 12.813-7.948 20.127-7.948 9.106 0 15.023 4.052 18.384 7.451 5.067 5.127 7.808 12.25 7.717 20.057-.375 32.362-14.473 87.635-29.58 118.164z"/></svg>