<svg id="Capa_1" enable-background="new 0 0 512.009 512.009" height="512" viewBox="0 0 512.009 512.009" width="512" xmlns="http://www.w3.org/2000/svg"><path d="m512.005 172.005c.032-72.509-90.695-106.224-138-52.482-29.853-35.063-88.158-35.052-118 0-29.853-35.063-88.157-35.052-118 0-47.33-53.766-138.044-19.988-138 52.482v52c0 11.246 3.733 21.638 10.023 30-6.29 8.362-10.023 18.754-10.023 30v52c-.032 72.509 90.695 106.224 138 52.482 29.853 35.063 88.157 35.052 118 0 29.853 35.063 88.158 35.052 118 0 47.33 53.766 138.044 19.988 138-52.482v-52c0-11.246-3.733-21.638-10.023-30 6.29-8.362 10.023-18.754 10.023-30zm-394 164c-1.967 51.681-76.052 51.642-78 0v-52c0-5.514 4.486-10 10-10h58c5.514 0 10 4.486 10 10zm0-112c0 5.514-4.486 10-10 10h-58c-5.514 0-10-4.486-10-10v-52c1.967-51.681 76.052-51.642 78 0zm118 112c-1.967 51.681-76.052 51.642-78 0v-52c0-5.514 4.486-10 10-10h58c5.514 0 10 4.486 10 10zm0-112c0 5.514-4.486 10-10 10h-58c-5.514 0-10-4.486-10-10v-52c1.967-51.681 76.052-51.642 78 0zm118 112c-1.967 51.681-76.052 51.642-78 0v-52c0-5.514 4.486-10 10-10h58c5.514 0 10 4.486 10 10zm0-112c0 5.514-4.486 10-10 10h-58c-5.514 0-10-4.486-10-10v-52c1.967-51.681 76.052-51.642 78 0zm118 112c-1.967 51.681-76.052 51.642-78 0v-52c0-5.514 4.486-10 10-10h58c5.514 0 10 4.486 10 10zm0-112c0 5.514-4.486 10-10 10h-58c-5.514 0-10-4.486-10-10v-52c1.967-51.681 76.052-51.642 78 0zm-471.377-172.049c-2.735-10.702 3.724-21.594 14.426-24.329 128.24-35.754 357.077-34.931 481.902 0 10.702 2.735 17.161 13.627 14.426 24.329-2.693 10.784-13.909 17.173-24.322 14.427-1.035-.264-104.98-26.379-231.055-26.379-126.362 0-230.017 26.114-231.049 26.377-10.7 2.734-21.595-3.723-24.328-14.425zm510.754 408.097c2.735 10.702-3.724 21.594-14.426 24.329-128.24 35.754-357.077 34.931-481.902 0-10.702-2.735-17.161-13.627-14.426-24.329 2.733-10.7 13.619-17.162 24.322-14.427 124.679 34.116 341.1 33.295 462.104.001 10.698-2.732 21.593 3.724 24.328 14.426z"/></svg>