<svg id="Capa_1" enable-background="new 0 0 511.951 511.951" height="512" viewBox="0 0 511.951 511.951" width="512" xmlns="http://www.w3.org/2000/svg"><path d="m130.742 460.557c-.132-.25.143.245 0 0zm250.501 0c.132-.25-.142.245 0 0zm109.524-289.463c-10.944-1.484-21.022 6.184-22.507 17.13-12.232 90.184-50.687 210.223-87.017 272.333-4.381 8.277-9.344 11.355-18.311 11.355-4.053 0-16.385 0-22.471-26.48-.037-.159-4.595-22.639-6.72-35.866-3.911-24.354-8.345-51.958-17.649-74.198-25.289-62.467-94.87-62.532-120.201.001-12.503 28.195-18.266 83.789-24.367 110.062-6.087 26.48-18.419 26.48-22.472 26.48-8.967 0-13.93-3.078-18.311-11.355-45.411-77.634-89.722-234.853-90.741-322.72-.316-27.332 9.563-52.555 27.819-71.024 17.146-17.346 40.309-26.899 65.218-26.899 27.389 0 45.697 11.548 65.079 23.774 43.129 29.465 72.672 29.428 115.752 0 7.65-4.826 15.562-9.817 23.956-13.898 23.408-12.476 6.755-46.68-17.492-35.973-10.376 5.045-19.636 10.886-27.805 16.039-32.237 21.203-40.846 21.19-73.07 0-91.627-68.184-218.816-13.077-219.455 108.445-.357 89.015 49.368 264.722 95.599 341.366 11.321 21.099 29.795 32.247 53.452 32.247 30.586 0 52.954-20.871 61.399-57.276 2.894-11.385 5.027-24.667 7.285-38.724 3.558-22.151 7.59-47.257 15.056-65.105 9.159-21.895 18.643-21.895 23.2-21.895 4.558 0 14.04 0 23.199 21.894 7.466 17.848 11.498 42.954 15.057 65.104 2.257 14.056 4.391 27.338 7.284 38.723 8.444 36.406 30.812 57.28 61.399 57.28 23.657 0 42.132-11.149 53.453-32.248 39.17-67.154 78.484-190.026 91.511-286.064 1.485-10.947-6.184-21.024-17.129-22.508zm-168.689-8.182v20h-20c-26.508.983-26.488 39.026 0 40h20v20c.983 26.508 39.026 26.488 40 0v-20h20c26.508-.983 26.488-39.026 0-40h-20v-20c-.983-26.507-39.026-26.487-40 0zm60-68h35v35c.983 26.508 39.026 26.488 40 0v-35h35c26.508-.983 26.488-39.026 0-40h-35v-35c-.983-26.508-39.026-26.488-40 0v35h-35c-26.508.984-26.488 39.026 0 40z"/></svg>