<svg id="Capa_1" enable-background="new 0 0 512.004 512.004" height="512" viewBox="0 0 512.004 512.004" width="512" xmlns="http://www.w3.org/2000/svg"><path d="m501.371 77.673-338.097 179.322 17.868 17.867c18.049 19.44-8.867 46.325-28.285 28.284l-13.188-13.188c-38.296 64.988-139.175 38.55-139.669-37.955 0-41.354 33.644-74.999 75-74.999 11.046 0 20 8.954 20 20s-8.954 20-20 20c-19.299 0-35 15.701-35 35 1.755 46.355 68.226 46.363 70 .018-.005-4.819 1.722-9.639 5.179-13.448.49-.541 4.335-3.692 5.86-4.457l270.991-143.729 42.301-79.755c5.177-9.757 17.282-13.474 27.04-8.297 9.758 5.175 13.473 17.282 8.298 27.04l-14.638 27.598 27.598-14.637c9.759-5.176 21.864-1.461 27.04 8.297 5.175 9.757 1.46 21.863-8.298 27.039zm-141.304 115.663c-9.757-5.178-21.864-1.459-27.04 8.297l-78.017 147.096-18.867-18.867c-7.811-7.811-20.475-7.811-28.285 0s-7.81 20.474 0 28.284l14.188 14.188c-64.987 38.293-38.55 139.176 37.955 139.669 41.354 0 74.999-33.645 74.999-75 0-11.046-8.954-20-20-20s-20 8.954-20 20c-1.759 46.369-68.248 46.355-70 0 0-19.299 15.701-35 35-35 7.402 0 14.2-4.089 17.669-10.629l90.696-171c5.175-9.757 1.46-21.863-8.298-27.038z"/></svg>