<svg id="Capa_1" enable-background="new 0 0 511.873 511.873" height="512" viewBox="0 0 511.873 511.873" width="512" xmlns="http://www.w3.org/2000/svg"><path d="m4.548 99.479c27.446-100.329 139.347-126.656 214.77-69.814 32.251 21.205 40.873 21.194 73.111 0 75.537-56.928 187.503-30.39 214.809 69.962 2.814 10.681-3.562 21.622-14.242 24.437-10.394 2.828-21.661-3.474-24.438-14.242-11.051-41.927-47.092-70.097-89.685-70.097-27.402 0-45.719 11.549-65.109 23.776-17.328 10.926-35.245 22.224-57.891 22.224s-40.562-11.299-57.89-22.225c-19.391-12.227-37.707-23.776-65.109-23.776-42.544 0-78.574 28.127-89.657 69.992-2.828 10.678-13.779 17.042-24.452 14.216-10.679-2.827-17.044-13.775-14.217-24.453zm473.012 151.802c-10.739-2.587-21.542 4.019-24.13 14.757-17.9 74.271-45.428 148.448-71.84 193.585-.144.245-.281.492-.414.743-4.383 8.28-9.35 11.358-18.324 11.358-4.056 0-16.397 0-22.487-26.482-.036-.158-.075-.316-.115-.474-7.932-33.429-10.47-77.095-24.262-109.589-25.297-62.463-94.89-62.53-120.229 0-13.788 32.479-16.334 76.176-24.262 109.589-.041.158-.079.316-.115.474-6.09 26.482-18.432 26.482-22.487 26.482-8.975 0-13.941-3.078-18.324-11.358-.133-.25-.271-.498-.414-.743-25.363-43.343-52.507-117.527-70.841-193.603-2.589-10.738-13.396-17.346-24.129-14.757-10.738 2.588-17.346 13.391-14.758 24.129 19.431 80.623 47.453 156.869 75.001 204.085 11.324 21.1 29.802 32.247 53.465 32.247 30.593 0 52.966-20.872 61.414-57.277 2.896-11.385 5.029-24.667 7.287-38.723 3.56-22.15 7.593-47.256 15.062-65.104 9.164-21.896 18.654-21.896 23.216-21.896s14.052 0 23.216 21.896c7.469 17.847 11.502 42.953 15.062 65.104 2.258 14.054 4.392 27.334 7.286 38.718 8.446 36.409 30.821 57.282 61.415 57.282 23.663 0 42.141-11.147 53.465-32.247 28.188-48.306 57.291-126.444 76-204.067 2.587-10.738-4.02-21.541-14.758-24.129zm34.313-62.557c0 11.046-8.954 20-20 20h-161c0 22.056-17.944 40-40 40h-70c-22.056 0-40-17.944-40-40h-161c-26.508-.983-26.488-39.026 0-40h161c0-22.056 17.944-40 40-40h70c22.056 0 40 17.944 40 40h161c11.046 0 20 8.954 20 20zm-220.974 19.999-.025-39.999h-70v40h70c.017 0 .025-.001.025-.001z"/></svg>