<svg id="Capa_1" enable-background="new 0 0 511.873 511.873" height="512" viewBox="0 0 511.873 511.873" width="512" xmlns="http://www.w3.org/2000/svg"><path d="m159.02 464.874c-.133-.251.143.244 0 0zm305.893-256.519c-.893 76.968-37.469 208.193-76.795 275.634-9.815 18.246-25.826 27.884-46.331 27.884-26.523 0-45.865-17.839-53.098-48.958-2.207-8.682-3.84-18.078-5.567-28.02-6.948-39.99-12.779-59.022-27.122-59.022s-20.173 19.032-27.122 59.022c-1.727 9.943-3.36 19.338-5.567 28.021-7.233 31.118-26.576 48.957-53.099 48.957-20.505 0-36.516-9.639-46.331-27.884-39.417-67.597-76.075-198.823-76.966-275.634-.366-31.525 11.165-60.755 32.467-82.307 20.551-20.793 48.342-32.23 78.18-32.174 15.651.074 28.352 12.865 28.352 28.564v63.435c3.53 92.76 136.503 92.69 140 0v-63.433c0-15.706 12.74-28.521 28.4-28.567h.133.187c61.944-1.066 112.201 52.815 110.279 114.482zm-39.997-.464c.241-20.811-7.185-39.919-20.91-53.805-10.283-10.403-23.527-17.075-38.091-19.346v51.133c-5.547 145.767-214.505 145.656-220 0v-51.108c-14.553 2.3-27.792 8.991-38.084 19.403-13.73 13.89-21.159 32.969-20.918 53.723.813 70.124 36.069 195.394 72.107 256.983 3.132 5.917 6.227 7 11.193 7 2.734 0 9.995 0 14.172-18.162.037-.159 3.479-16.426 5.084-25.663 6.469-43.943 20.242-92.443 66.532-92.174 46.291-.279 60.078 48.287 66.53 92.175 1.605 9.236 5.048 25.504 5.084 25.663 4.176 18.162 11.438 18.162 14.171 18.162 4.966 0 8.061-1.083 11.193-7 35.948-61.436 71.121-186.707 71.937-256.984zm-71.937 256.983c.133-.251-.143.244 0 0zm-116.065-368.001v58.767c-24.823 18.814-11.558 59.174 20.001 59.233 31.559-.06 44.822-40.425 19.999-59.233v-58.767c22.056 0 40-17.944 40-40v-37c-.983-26.508-39.026-26.488-40 0v37h-40v-37c-.983-26.508-39.026-26.488-40 0v37c0 22.056 17.944 40 40 40z"/></svg>