<svg id="Capa_1" enable-background="new 0 0 512.011 512.011" height="512" viewBox="0 0 512.011 512.011" width="512" xmlns="http://www.w3.org/2000/svg"><path d="m433.005 115.421c-23.434 0-44.52 10.258-59 26.518-29.852-35.063-88.158-35.052-118 0-29.852-35.063-88.158-35.052-118 0-47.33-53.766-138.044-19.988-138 52.482v64c0 27.57 22.43 50 50 50h58c27.57 0 50-22.43 50-50v-64c1.967-51.681 76.052-51.642 78 0v64c0 27.57 22.43 50 50 50h58c11.246 0 21.638-3.733 30-10.023 8.362 6.29 18.754 10.023 30 10.023h58c27.57 0 50-22.43 50-50v-64c0-43.56-35.439-79-79-79zm-315 143c0 5.514-4.486 10-10 10h-58c-5.514 0-10-4.486-10-10v-64c1.967-51.681 76.052-51.642 78 0zm236 0c0 5.514-4.486 10-10 10h-58c-5.514 0-10-4.486-10-10v-64c1.967-51.681 76.052-51.642 78 0zm118 0c0 5.514-4.486 10-10 10h-58c-5.514 0-10-4.486-10-10v-64c1.967-51.681 76.052-51.642 78 0zm-18.828 128.887c7.794 7.827 7.768 20.49-.059 28.284-7.827 7.795-20.489 7.768-28.284-.059l-25.357-25.462c-6.178-6.176-16.267-6.201-22.51-.045l-24.619 25.333c-7.703 7.926-20.367 8.098-28.281.404-7.921-7.698-8.103-20.36-.404-28.281l24.738-25.456c21.776-22.018 57.49-22.113 79.386-.214zm-452.048-324.277c-3.65-10.425 1.841-21.835 12.267-25.486 136.884-49.716 351.056-48.829 485.22 0 10.425 3.65 15.917 15.061 12.266 25.486-3.632 10.522-15.331 15.899-25.476 12.27-131.228-46.739-330.477-45.899-458.791-.004-10.426 3.651-21.835-1.841-25.486-12.266zm406.876 376.39v52c-.983 26.508-39.026 26.488-40 0v-52c.984-26.508 39.027-26.488 40 0zm-211-121c-43.561 0-79 35.439-79 79v64c0 27.57 22.43 50 50 50h58c27.57 0 50-22.43 50-50v-64c0-43.56-35.439-79-79-79zm39 143c0 5.514-4.486 10-10 10h-58c-5.514 0-10-4.486-10-10v-64c1.967-51.681 76.052-51.642 78 0z"/></svg>