<svg id="Capa_1" enable-background="new 0 0 511.99 511.99" height="512" viewBox="0 0 511.99 511.99" width="512" xmlns="http://www.w3.org/2000/svg"><path d="m337.979 283.206c-5.625-3.7-12.731-4.321-18.912-1.654l-113.077 48.78v-30.417c-.983-26.508-39.026-26.488-40 0v117.556c0 15.939 6.506 31.503 17.85 42.701l37.816 37.328c19.478 19.231 51.087 19.138 70.458-.207l37.277-37.231c11.349-11.335 17.599-26.412 17.599-42.452v-117.695c0-6.731-3.386-13.011-9.011-16.709zm-30.989 134.403c0 5.347-2.083 10.373-5.867 14.151l-37.276 37.231c-3.873 3.87-10.196 3.888-14.091.042l-21.951-21.668 79.185-34.58zm0-48.472-101 44.106v-39.348l101-43.571zm165.621-330.441c-52.42-52.721-127.729-47.152-180.085-8.837-32.238 21.202-40.847 21.191-73.072 0-91.626-68.185-218.818-13.077-219.454 108.444.192 16.578 1.741 35.543 4.603 56.368 3.702 26.934 27.048 47.245 54.306 47.245h394.163c27.258 0 50.604-20.311 54.306-47.246 2.861-20.824 4.41-39.789 4.602-56.367.441-38.102-13.54-73.477-39.369-99.607zm-4.861 150.529c-.994 7.235-7.305 12.691-14.678 12.691h-394.164c-7.374 0-13.684-5.456-14.678-12.691-2.636-19.179-4.06-36.468-4.233-51.386-1.624-52.489 40.184-98.771 93.038-97.923 27.388-.001 45.696 11.547 65.078 23.773 43.125 29.464 72.671 29.43 115.753-.001 19.382-12.225 37.69-23.773 65.079-23.773 52.84-.846 94.672 45.434 93.037 97.923-.173 14.919-1.597 32.208-4.232 51.387z"/></svg>