<svg id="Capa_1" enable-background="new 0 0 512.457 512.457" height="512" viewBox="0 0 512.457 512.457" width="512" xmlns="http://www.w3.org/2000/svg"><path d="m277.467 61.72c.059-.067-.066.081 0 0zm140.209 224.317c5.618 9.51 2.463 21.774-7.047 27.392-101.994 59.611-220.945 95.599-308.03 182.923-9.308 9.307-25.796 15.902-39.793 15.902-32.691-.169-61.726-27.157-62.731-59.737-.805-16.427 4.949-31.67 16.199-42.921 106.991-104.863 138.066-264.992 230.937-374.04 16.805-20.116 40.513-32.517 66.788-34.929 26.35-2.414 52.005 5.511 72.241 22.326 8.495 7.059 9.66 19.669 2.6 28.165-7.059 8.495-19.669 9.66-28.165 2.6-12.024-9.992-27.303-14.703-43.021-13.257-15.694 1.44-30.207 9.276-40.186 21.26-65.532 78.978-66.128 233.456-110.973 334.273 71.245-44.827 153.195-75.709 223.79-117.003 9.511-5.62 21.774-2.464 27.391 7.046zm-252.304-28.305c-31.552 63.194-66.959 126.294-120.814 180.148-11.488 12.437.203 33.551 17.164 34.347 3.224.159 8.677-1.387 12.544-4.522 52.205-52.037 73.299-131.214 91.106-209.973zm324.467-132.305c-7.059-8.496-19.668-9.66-28.165-2.6-8.495 7.059-9.66 19.669-2.6 28.165 20.45 23.435 16.764 64.779-7.4 83.869-8.495 7.06-9.66 19.669-2.6 28.165 7.089 8.529 19.718 9.631 28.165 2.6 22.653-18.824 35.488-47.107 35.213-77.596-.207-23.07-8.238-45.303-22.613-62.603z"/></svg>