<svg id="Capa_1" enable-background="new 0 0 511.99 511.99" height="512" viewBox="0 0 511.99 511.99" width="512" xmlns="http://www.w3.org/2000/svg"><path d="m120.653 461.807c-.133-.251.143.245 0 0zm221.595.001c.133-.251-.143.244 0 0zm112.259-207.712c-14.887 81.292-46.748 174.785-77.534 227.569-10.614 19.759-27.792 30.197-49.707 30.197-28.412 0-49.189-19.365-57.033-53.143-6.963-27.668-9.253-66.952-19.907-92.56-7.667-18.297-15.238-18.297-18.876-18.297-22.529-.17-28.161 54.542-32.227 76.058-2.027 12.607-3.944 24.521-6.554 34.795-7.843 33.782-28.621 53.147-57.035 53.147-21.914 0-39.092-10.439-49.707-30.198-41.592-68.959-86.235-226.666-85.918-306.744-.403-34.681 12.332-66.889 35.86-90.692 47.861-48.073 116.55-43.162 164.1-7.667 19.397 11.933 28.03 19.717 47.082 9.462 4.859-2.462 10.511-2.837 15.651-1.038 5.141 1.8 9.325 5.618 11.586 10.573 0 0 35.495 77.852 43.509 95.104 1.273 2.741 4.117 4.4 7.12 4.179 0 0 45.841-5.913 46.026-5.931 14.803-1.491 29.583 3.415 40.559 13.453l36.761 33.309c5.129 4.648 7.491 11.617 6.244 18.424zm-41.427 3.675-28.504-25.829c-2.602-2.379-5.998-3.537-9.413-3.252 0 0-45.865 5.916-46.051 5.934-19.996 2.013-39.123-8.882-47.591-27.109-8.074-17.381-35.869-78.35-35.869-78.35-24.455 6.577-48.616-6.199-67.311-18.957-17.078-10.977-33.21-21.346-57.056-21.346-21.766 0-41.997 8.341-56.968 23.486-15.955 16.141-24.589 38.198-24.312 62.108.91 78.415 40.103 218.062 80.647 287.351 4.105 7.754 9.031 10.055 14.981 10.055 3.208 0 12.968 0 18.107-22.35.036-.158 4.095-20.165 5.99-31.944 6.708-48.042 20.292-110.194 71.72-109.705 51.431-.496 65.022 61.714 71.719 109.705 1.895 11.78 5.953 31.786 5.989 31.944 5.139 22.35 14.899 22.35 18.107 22.35 5.95 0 10.877-2.301 14.982-10.055 27.419-46.855 55.951-129.374 70.833-204.036zm98.91-131.851c-.221 19.098-2.475 41.71-6.699 67.21-1.224 7.392-6.477 13.479-13.609 15.772-7.053 2.283-14.939.433-20.251-4.885l-56.776-56.674c-2.518-2.442-5.925-3.687-9.417-3.453 0 0-26.386 3.913-26.714 3.945-20.345 2.006-39.57-9.213-47.842-27.906-2.722-6.15-22.341-51.164-28.915-65.745-4.108-9.113-.857-19.86 7.613-25.167 1.239-.776 2.485-1.564 3.742-2.358 82.797-61.766 198.68-10.379 198.868 99.261zm-39.997-.463c.277-23.91-8.357-45.967-24.312-62.108-26.916-27.977-71.496-30.275-102.312-9.6 4.339 9.819 19.195 43.903 21.89 49.994 1.224 2.767 4.018 4.462 7.011 4.311 0 0 26.346-3.907 26.674-3.939 15.317-1.535 30.705 3.83 41.774 14.726.041.041.082.081.123.122l28.069 28.019c.643-7.687 1.005-14.871 1.083-21.525z"/></svg>