<svg id="Capa_1" enable-background="new 0 0 512.071 512.071" height="512" viewBox="0 0 512.071 512.071" width="512" xmlns="http://www.w3.org/2000/svg"><path d="m106.039 415.035c16.019 0 31.077-6.238 42.404-17.564.023-.024.048-.048.071-.072l100-101.023c10.625-10.565 107.125-78.966 165.522-119.646.969-.674 1.876-1.434 2.71-2.268l42.585-42.583c15.519-14.889 15.519-41.682 0-56.571l-37.702-37.7c-18.47-18.47-46.088-22.355-68.396-11.67l-20.041-20.044c-7.809-7.81-20.472-7.811-28.284-.001-7.811 7.811-7.812 20.474-.001 28.285l20.026 20.028c-10.988 22.262-6.225 51.027 11.688 68.416l34.968 34.966c-36.089 25.27-103.442 72.751-135.369 97.337l-27.204-27.204c21.708-13.89 59.367-35.532 93.575-54.109 9.707-5.271 13.303-17.413 8.031-27.12-5.271-9.707-17.411-13.301-27.119-8.031-17.113 9.304-103.075 56.337-119.901 73.212l-100.003 101.025c-37.581 37.158-10.36 102.778 42.44 102.337zm258.867-320.699c-7.799-7.798-7.799-20.487-.022-28.264l.181-.181c7.799-7.797 20.485-7.797 28.283 0l37.702 37.7-28.443 28.442zm-272.987 246.61c.023-.024.048-.048.071-.072l86.364-87.247 28.239 28.24-86.469 87.354c-7.438 7.715-20.786 7.699-28.206-.034-7.785-7.786-7.785-20.455.001-28.241zm420.152 151.089c0 11.046-8.954 20-20 20h-87.94c-36.438 0-66.081-29.644-66.081-66.081v-23.76c-1.059-36.067-53.3-38.077-55-1.318v24.159c0 36.944-30.056 67-67 67h-159c-23.453 0-43.598-13.46-52.573-35.127-8.975-21.668-4.248-45.431 12.335-62.015 7.811-7.811 20.474-7.811 28.284 0 7.811 7.81 7.812 20.474.001 28.284-7.411 7.411-4.679 15.975-3.665 18.423 1.015 2.448 5.138 10.435 15.618 10.435h159c14.888 0 27-12.112 27-27v-24.159c3.731-89.801 131.955-87.695 135 1.318v23.76c0 14.381 11.7 26.081 26.081 26.081h87.94c11.046 0 20 8.954 20 20z"/></svg>