<svg id="Capa_1" enable-background="new 0 0 512 512" height="512" viewBox="0 0 512 512" width="512" xmlns="http://www.w3.org/2000/svg"><path d="m101.237 466.797c-.132-.251.144.245 0 0zm161.77 0c.133-.251-.144.245 0 0zm72.334-290.304c18.916 19.137 29.155 45.008 28.833 72.846-.766 65.958-32.41 178.928-66.446 237.324-8.819 16.343-23.778 25.337-42.171 25.337-23.793 0-41.816-16.484-48.251-44.108-2.04-8.039-3.518-17.191-5.082-26.875-2.475-13.464-7.292-53.562-20.101-54.017-12.755.371-17.645 40.553-20.101 54.016-1.564 9.685-3.042 18.837-5.082 26.876-6.435 27.626-24.458 44.108-48.252 44.108-18.394 0-33.353-8.994-42.171-25.338-34.036-58.396-65.681-171.365-66.447-237.324-.322-27.838 9.917-53.708 28.833-72.846 38.024-38.501 93.556-34.478 131.33-7.398 20.551 13.038 23.233 13.031 43.778 0 37.817-27.112 93.35-31.066 131.33 7.399zm-208.277 32.471c0 29.776 24.225 54 54 54 33.851.396 60.163-32.209 52.843-65.192-2.96 1.693-5.882 3.502-8.841 5.334-31.247 21.048-54.683 21.016-85.887 0-3.586-2.22-7.113-4.404-10.725-6.392-.924 3.99-1.39 8.09-1.39 12.25zm197.112 39.911c.198-17.067-5.939-32.786-17.283-44.262-9.147-9.254-21.084-14.917-34.106-16.288 13.615 57.673-32.353 115.367-91.723 114.638-59.256.723-105.206-56.76-91.785-114.367-12.173 1.746-23.292 7.281-31.927 16.017-11.344 11.476-17.481 27.195-17.283 44.262.689 59.462 30.417 165.369 61.169 217.923 2.035 3.844 3.885 5.203 7.45 5.203 1.549 0 6.264 0 9.325-13.313.036-.158 3.09-15.188 4.521-24.048 2.743-16.984 5.852-36.235 12.541-52.111 19.29-47.74 74.773-47.792 94.097 0 6.688 15.876 9.798 35.127 12.541 52.111 1.431 8.861 4.484 23.89 4.521 24.049 3.059 13.311 7.774 13.311 9.323 13.311 3.565 0 5.415-1.359 7.45-5.203 30.752-52.554 60.479-158.461 61.169-217.922zm167.888-168.875h-86c-26.503-1.009-26.483-39.001 0-40h86c26.508-.983 26.488-39.026 0-40h-86c-79.509 3.026-79.448 117.002 0 120h86c26.507-.983 26.487-39.026 0-40zm-314.967 50.34c9.405 5.454 21.771 2.291 27.307-7.373l18.93-32.933c3.557-6.189 10.2-10.034 17.339-10.034h55.391c26.508-.983 26.488-39.026 0-40h-55.391c-21.414 0-41.347 11.533-52.02 30.1l-18.93 32.934c-5.503 9.576-2.202 21.801 7.374 27.306z"/></svg>