<svg id="Capa_1" enable-background="new 0 0 512.502 512.502" height="512" viewBox="0 0 512.502 512.502" width="512" xmlns="http://www.w3.org/2000/svg"><path d="m373.459 206.306h-28.565c-26.508.983-26.488 39.026 0 40h28.565c8.425 0 15.999 5.338 18.847 13.283 23.752 65.024 6.781 141.475-42.918 189.885-14.587 14.51-34.987 22.832-55.968 22.832h-144.053c-20.981 0-41.381-8.322-55.969-22.833-53.339-51.721-68.522-135.835-37.542-203.167h43.037c20.979-.163 27.508-28.174 9.224-37.75l196.81-127.147c13.224-8.542 20.101-23.546 17.947-39.155-2.142-15.528-12.762-28.041-27.716-32.657-59.551-18.379-123.699-9.55-175.983 24.225-63.417 40.971-99.634 112.27-95.63 187.327-43.004 83.364-25.927 191.303 41.645 256.684 22.024 21.908 52.706 34.473 84.177 34.473h144.053c31.471 0 62.152-12.565 84.178-34.472 60.65-59.084 81.37-152.372 52.362-231.741-8.531-23.798-31.237-39.787-56.501-39.787zm-232.577-138.885c42.387-27.423 94.507-34.42 142.372-19.637v.002c-.01.007-.021.015-.033.022l-218.699 141.29c6.074-49.316 33.565-94.029 76.36-121.677zm80.021 232.885c11.046 0 20 8.954 20 20-.98 26.503-39.027 26.491-40.005 0 0-11.046 8.949-20 19.995-20zm231.99-252h-8.5c-10.201 0-18.5-8.299-18.5-18.5v-9.5c-.983-26.508-39.026-26.488-40 0v9.5c0 32.257 26.243 58.5 58.5 58.5h8.5c26.503 1.009 26.483 39.001 0 40h-38c-102.81-2.511-298.145 78.912-294.996 193.4 6.11 133.32 196.931 133.219 202.992 0-.432-50.173-37.095-93.113-84.922-101.041 53.313-31.899 123.657-52.359 176.926-52.359h38c79.509-3.026 79.449-117.003 0-120zm-170.001 272.749c-3.375 81.169-119.653 81.108-122.998 0 3.382-81.832 119.645-81.77 122.998 0z"/></svg>