<svg id="Capa_1" enable-background="new 0 0 512.548 512.548" height="512" viewBox="0 0 512.548 512.548" width="512" xmlns="http://www.w3.org/2000/svg"><path d="m512.548 356.278c0 11.046-8.954 20-20 20h-56.251c-8.756 0-16.436 5.67-19.108 14.109-.954 3.01-2.03 6.696-3.276 10.964-5.328 18.25-12.625 43.245-24.404 64.987-33.668 62.054-85.28 57.129-120.362 9.744-3.764-4.431-9.713-11.435-13.272-14.109-3.56 2.674-9.509 9.678-13.272 14.109-35.108 47.412-86.708 52.284-120.363-9.745-11.779-21.741-19.076-46.736-24.404-64.986-1.246-4.269-2.323-7.955-3.276-10.965-2.673-8.439-10.353-14.109-19.108-14.109h-55.579c-26.508-.983-26.488-39.026 0-40h55.576c26.274 0 49.277 16.891 57.241 42.029 8.686 26.883 23.371 91.837 52.228 93.971 22.709-3.318 37.671-51.638 70.955-51 19.201-.001 32.248 15.357 43.757 28.907 8.797 10.355 18.767 22.092 27.196 22.092 28.898-2.173 43.491-67.042 52.229-93.97 7.963-25.14 30.966-42.03 57.241-42.03h56.251c11.047.002 20.001 8.956 20.001 20.002zm-328.061-113.722c-11.585-11.508-15.349-26.49-10.626-42.233 14.077-52.946 60.961-135.729 98.546-173.938 16.43-16.703 38.479-25.976 61.215-26.107 21.685 0 42.167 8.494 57.728 23.95 17.112 16.999 21.418 35.889 24.562 49.682 1.664 7.301 3.101 13.606 5.592 16.08 2.52 2.503 9.209 4.007 16.291 5.6 38.761 5.96 74.361 36.837 74.078 82.359-.132 22.671-9.485 44.165-26.337 60.521-38.453 37.321-121.753 83.875-175.02 97.847-15.155 4.583-30.637 1.113-42.223-10.514-14.997-14.896-16.092-36.308-2.945-57.32 3.527-5.88 7.993-12.014 12.718-18.502 6.119-8.405 12.447-17.096 16.543-25.015 4.246-8.208 3.853-11.381 3.801-11.677-.017-.01-.699-.674-.738-.695-.007.001-2.974-.738-11.58 3.581-14.07 7.047-30.412 21.087-44.259 29.293-21.018 12.975-42.44 11.894-57.346-2.912zm27.39-29.306c.176.95 1.108 1.208 1.18 1.259.741.071 3.429-.383 7.862-3.14.137-.085 10.345-6.814 16.19-11.014 29.176-22.265 63.906-40.749 89.177-15.784 7.553 7.502 18.546 24.147 7.319 51.336-5.48 13.274-14.896 26.206-23.203 37.616-4.226 5.804-10.995 15.937-11.081 16.074-2.602 4.126-3.126 6.714-3.121 7.517.057.07.303.831 1.309 1.164 1.005.332 2.887-.519 3.159-.591 46.193-12.016 123.664-55.559 157.008-87.921 9.086-8.818 14.128-20.2 14.196-32.048.064-10.979-4.324-21.418-12.355-29.396-19.256-18.604-46.292-9.728-66.203-29.954-10.723-10.65-13.74-23.889-16.402-35.569-2.614-11.467-4.871-21.371-13.752-30.193-8.01-7.956-18.737-12.328-29.788-12.328-12.014.07-23.537 5.097-32.448 14.157-32.567 33.108-76.396 110.607-88.483 156.459-.074.276-.74 1.406-.564 2.356zm-192.004 73.028h62c26.508-.983 26.488-39.026 0-40h-62c-26.507.983-26.487 39.026 0 40zm73.019-68.7c7.893 7.718 20.555 7.583 28.282-.319 7.722-7.898 7.579-20.561-.319-28.283l-44-43.019c-7.896-7.721-20.56-7.58-28.282.319-7.722 7.898-7.579 20.561.319 28.283z"/></svg>