<svg id="Capa_1" enable-background="new 0 0 512.013 512.013" height="512" viewBox="0 0 512.013 512.013" width="512" xmlns="http://www.w3.org/2000/svg"><path d="m455.749 57.065c-24.901-32.85-72.019-54.386-74.013-55.287-10.061-4.545-21.885-.077-26.44 9.976-4.556 10.052-.097 21.9 9.951 26.467.396.181 39.924 18.335 58.625 43.006 4.257 5.617 8.1 11.235 11.521 16.834-13.691-.432-27.604 3.638-39.341 12.535-.001 0-.001 0-.001 0-11.29 8.559-18.823 20.263-22.304 32.975-4.822-5.606-9.611-11.959-12.082-15.238-18.542-24.459-24.291-67.444-24.348-67.875-1.404-10.945-11.417-18.689-22.358-17.294-10.957 1.393-18.712 11.404-17.319 22.362.278 2.186 7.092 53.917 32.147 86.971 7.833 10.395 26.883 35.67 53.784 52.982-27.657 26.374-50.156 58.151-65.897 93.315-26.986 60.291-53.634 102.428-75.032 118.649-40.05 30.356-106.523 55.593-107.186 55.843-10.338 3.892-15.563 15.426-11.672 25.764 3.881 10.441 15.695 15.541 25.764 11.672 2.94-1.107 72.528-27.499 117.257-61.401 27.436-20.797 56.834-65.943 87.379-134.184 16.304-36.422 40.97-68.626 71.649-93.64 15.49 1.933 31.725-1.931 45.121-12.084 13.912-10.546 24.559-31.587 24.559-45.969-.001-34.29-12.999-71.067-39.764-106.379zm-8.958 120.47c-5.345 4.05-11.959 5.281-18.046 3.937-1.177-.496-2.396-.877-3.637-1.14-3.507-1.441-6.687-3.807-9.137-7.04-7.327-9.666-5.424-23.491 4.242-30.819 9.666-7.326 23.492-5.424 30.819 4.242 7.327 9.667 5.425 23.493-4.241 30.82zm-311.229 98.646c-39.97 30.297-82.405 88.92-82.829 89.508-6.492 9.019-19.048 10.954-27.915 4.544-8.963-6.452-11.001-18.946-4.551-27.91 1.871-2.6 46.325-64.056 91.133-98.019 57.745-43.771 195.451-56.774 201.285-57.307 10.985-1 20.73 7.1 21.733 18.101 1.004 11-7.101 20.73-18.101 21.734-36.587 3.353-140.391 18.754-180.755 49.349z"/></svg>