<svg id="Capa_1" enable-background="new 0 0 512.072 512.072" height="512" viewBox="0 0 512.072 512.072" width="512" xmlns="http://www.w3.org/2000/svg"><path d="m404.911 176.081c-4.321 0-8.564.344-12.701 1.007-.276-.313-57.298-57.354-57.298-57.354 8.063-47.913-30.34-93.101-79.001-92.653-97.01 2.523-109.062 138.322-15.084 158.573l-154.352 155.053c-23.265 22.323-23.263 62.487 0 84.81 23.382 23.38 61.427 23.38 84.809 0l.032-.032 154.803-155.507c19.086 95.013 156.187 83.782 158.792-13.899 0-44.111-35.888-79.998-80-79.998zm-189-69c0-22.056 17.944-40 40-40 52.993 2.011 52.978 77.997-.001 80-22.055 0-39.999-17.944-39.999-40zm-72.919 290.159c-7.786 7.778-20.448 7.777-28.233-.009-7.757-7.459-7.751-20.804.032-28.271l153.009-153.706 28.24 28.24zm181.27-182.094-28.24-28.24 24.691-24.803 28.24 28.24zm80.649 80.935c-22.056 0-40-17.944-40-40 2.011-52.993 77.997-52.978 80 .001 0 22.054-17.944 39.999-40 39.999zm-338.69 151.028c7.717 7.903 7.565 20.565-.338 28.282l-31.741 30.991c-7.898 7.711-20.561 7.57-28.282-.339-7.717-7.903-7.565-20.565.338-28.282l31.741-30.991c7.904-7.715 20.566-7.565 28.282.339zm439.823-320.869c-7.81 7.811-20.474 7.811-28.284 0l-31.859-31.859-30.85 30.843c-19.442 18.045-46.324-8.871-28.281-28.287l30.847-30.84-31.857-31.857c-18.048-19.439 8.866-46.325 28.284-28.284l92 92c7.811 7.811 7.811 20.474 0 28.284z"/></svg>