<svg id="Capa_1" enable-background="new 0 0 512.15 512.15" height="512" viewBox="0 0 512.15 512.15" width="512" xmlns="http://www.w3.org/2000/svg"><path d="m381.792 459.811c-.144.244.133-.251 0 0zm-251.434 0c.144.244-.132-.251 0 0zm339.959-179.196c-10.657-2.906-21.651 3.382-24.554 14.039-17.829 65.431-41.743 127.171-63.971 165.157-4.383 8.279-9.764 12.101-18.738 12.101-4.056 0-16.398 0-22.487-26.481-11.843-52.08-13.689-156.541-84.492-156.518-70.814-.018-72.652 104.474-84.49 156.518-6.089 26.481-18.432 26.481-22.487 26.481-8.975 0-14.355-3.821-18.738-12.101-22.915-39.161-47.853-102.46-65.083-165.196-2.925-10.651-13.932-16.912-24.583-13.989-10.651 2.926-16.914 13.932-13.989 24.583 18.039 65.682 44.433 132.476 68.929 174.457 11.325 21.098 29.803 32.246 53.464 32.246 30.592 0 52.966-20.871 61.414-57.276 7.794-31.07 10.34-74.982 22.349-103.827 9.164-21.896 18.655-21.896 23.216-21.896 27.267-.301 33.461 61.355 38.277 87 2.258 14.055 4.392 27.335 7.287 38.72 8.447 36.408 30.821 57.28 61.415 57.28 23.661 0 42.14-11.148 53.464-32.246 24.195-41.467 48.91-105.035 67.837-174.496 2.902-10.659-3.383-21.652-14.04-24.556zm41.833-142.316c-.192 16.576-1.741 35.541-4.604 56.368-3.703 26.934-27.055 47.245-54.318 47.245h-108.332c-16.432 0-31.435-10.304-37.334-25.641l-10.138-26.359h-82.528l-10.138 26.359c-5.899 15.336-20.902 25.641-37.334 25.641h-108.502c-27.264 0-50.616-20.311-54.318-47.245-2.863-20.823-4.412-39.788-4.604-56.368.67-121.666 127.985-176.559 219.52-108.447 32.25 21.205 40.874 21.193 73.111 0 91.634-68.17 218.878-13.096 219.519 108.447zm-39.997-.464c1.624-52.501-40.215-98.774-93.079-97.923-27.402-.001-45.717 11.548-65.109 23.775-43.136 29.461-72.689 29.427-115.781-.001-19.391-12.226-37.707-23.775-65.109-23.775-52.85-.849-94.713 45.422-93.078 97.923.173 14.919 1.598 32.207 4.234 51.384.995 7.236 7.311 12.692 14.691 12.692h108.502l10.138-26.359c5.899-15.336 20.902-25.641 37.333-25.641h82.528c16.432 0 31.435 10.304 37.334 25.641l10.138 26.359h108.332c7.38 0 13.696-5.457 14.691-12.692 2.638-19.18 4.062-36.468 4.235-51.383z"/></svg>