<svg id="Capa_1" enable-background="new 0 0 512 512" height="512" viewBox="0 0 512 512" width="512" xmlns="http://www.w3.org/2000/svg"><path d="m432 232v-33.147c26.087-8.454 45-32.985 45-61.853v-39.119c0-23.645-19.236-42.881-42.881-42.881h-44.237c-23.646 0-42.882 19.236-42.882 42.881v39.119c0 28.867 18.913 53.398 45 61.853v33.147h-116v-33.147c26.087-8.454 45-32.985 45-61.853v-39.119c0-23.645-19.236-42.881-42.881-42.881h-44.237c-23.646 0-42.882 19.236-42.882 42.881v39.119c0 28.867 18.913 53.398 45 61.853v33.147h-116v-88.48c25.567-8.752 44-33.024 44-61.52v-39.119c0-23.645-19.236-42.881-42.881-42.881h-44.238c-23.645 0-42.881 19.236-42.881 42.881v39.119c0 29.235 19.397 54.022 46 62.168v87.832c-44.112 0-80 35.888-80 80v100c0 55.141 44.86 100 100 100h312c55.14 0 100-44.859 100-100v-100c0-44.112-35.888-80-80-80zm-45-95v-39.119c0-1.589 1.292-2.881 2.881-2.881h44.237c1.589 0 2.881 1.292 2.881 2.881v39.119c-1.26 33.129-48.75 33.104-49.999 0zm5 135v40h-116v-40zm-161-135v-39.119c0-1.589 1.292-2.881 2.881-2.881h44.237c1.589 0 2.881 1.292 2.881 2.881v39.119c-1.26 33.129-48.75 33.104-49.999 0zm5 135v40h-116v-40zm-162-190v-39.119c0-1.589 1.292-2.881 2.881-2.881h44.237c1.589 0 2.881 1.292 2.881 2.881v39.119c-1.26 33.129-48.75 33.104-49.999 0zm398 330c0 33.084-26.916 60-60 60h-312c-33.084 0-60-26.916-60-60v-100c0-22.056 17.944-40 40-40v60c0 11.046 8.954 20 20 20h312c11.046 0 20-8.954 20-20v-60c22.056 0 40 17.944 40 40zm-353-1c0 11.046-8.954 20-20 20-26.501-.981-26.494-39.023 0-40 11.046 0 20 8.954 20 20zm314 1c0 11.046-8.954 20-20 20-26.501-.981-26.494-39.023 0-40 11.046 0 20 8.954 20 20zm-154-1c0 11.046-8.954 20-20 20-26.501-.981-26.494-39.023 0-40 11.046 0 20 8.954 20 20z"/></svg>