<svg id="Capa_1" enable-background="new 0 0 512.034 512.034" height="512" viewBox="0 0 512.034 512.034" width="512" xmlns="http://www.w3.org/2000/svg"><path d="m130.357 459.936c-.133-.25.143.244 0 0zm251.326 0c.133-.25-.143.244 0 0zm130.327-321.765c.362 89.008-49.377 264.997-95.597 341.614-11.321 21.099-29.796 32.249-53.453 32.249-30.585 0-52.954-20.873-61.399-57.278-7.824-31.267-10.362-75.52-22.388-104.607-9.183-22.114-18.618-22.114-23.152-22.114s-13.969 0-23.152 22.114c-12.026 29.087-14.565 73.341-22.388 104.607-8.445 36.405-30.814 57.278-61.399 57.278-23.657 0-42.132-11.15-53.453-32.249-46.221-76.615-95.961-252.609-95.597-341.614-.443-38.102 13.538-73.477 39.367-99.607 52.393-52.702 127.791-47.219 180.127-8.666 32.239 21.307 40.763 21.295 72.989 0 91.527-68.491 218.875-13.248 219.495 108.273zm-39.997-.464c1.624-52.488-40.184-98.772-93.038-97.923-27.362-.001-45.662 11.606-65.037 23.893-42.983 29.623-72.925 29.565-115.836-.001-19.375-12.286-37.675-23.893-65.038-23.893-24.91 0-48.072 9.553-65.218 26.9-18.256 18.469-28.136 43.692-27.819 71.023 1.02 87.998 44.918 244.595 90.33 322.229 4.38 8.278 9.756 12.098 18.723 12.098 4.053 0 16.385 0 22.472-26.48.037-.158 4.609-22.781 6.74-36.129 7.338-52.087 21.586-121.912 77.729-121.39 56.145-.529 70.402 69.353 77.727 121.39 2.131 13.348 6.704 35.971 6.74 36.129 6.087 26.48 18.419 26.48 22.472 26.48 8.967 0 14.343-3.819 18.723-12.098 45.412-77.633 89.31-234.23 90.33-322.228zm-95.273-56.926-97.779 96.252-23.796-24.172c-.037-.037-.073-.074-.11-.111-15.573-15.573-40.898-15.597-56.499-.069l-40.802 40.087c-7.879 7.741-7.991 20.404-.25 28.283 7.742 7.879 20.404 7.991 28.283.25l40.858-40.142c.042-.041.083-.083.125-.124l23.796 24.172c.037.037.073.074.11.111 15.385 15.386 40.588 15.557 56.182.381.027-.026.055-.053.082-.08l14.008-13.79 29.815 28.176-32.625 30.395c-8.082 7.529-8.53 20.185-1.001 28.267 3.939 4.229 9.281 6.368 14.638 6.367 4.881 0 9.775-1.776 13.628-5.366l32.986-30.729c.119-.111.237-.224.354-.337 15.911-14.915 15.935-42.194.051-57.136-.091-.089-.182-.177-.275-.265l-29.046-27.449 55.328-54.464c7.872-7.749 7.972-20.412.223-28.283-7.75-7.874-20.412-7.972-28.284-.224z"/></svg>