<svg id="Capa_1" enable-background="new 0 0 512.528 512.528" height="512" viewBox="0 0 512.528 512.528" width="512" xmlns="http://www.w3.org/2000/svg"><path d="m225.511 201.844-208.063 208.062c-23.264 22.322-23.263 62.487 0 84.809v.001c23.382 23.38 61.427 23.38 84.809 0l208.062-208.063c23.264-22.323 23.264-62.486-.001-84.809-23.38-23.381-61.425-23.382-84.807 0zm-151.539 264.587c-7.785 7.785-20.455 7.785-28.24 0v-.001c-7.747-7.432-7.746-20.806 0-28.238l151.889-151.89 28.24 28.239zm208.063-208.064-27.889 27.89-28.24-28.239 27.889-27.89c7.786-7.786 20.454-7.786 28.24 0 7.746 7.433 7.747 20.807 0 28.239zm210.024-122.945c-8.4 8.4-25.998 19.624-81.598 20.112-15.613.138-30.32 6.129-41.428 16.873l-10.002 10.01c-7.808 7.814-20.471 7.818-28.284.011s-7.818-20.471-.011-28.284l10.113-10.121c.069-.069.139-.139.21-.207 18.532-18.008 43.055-28.051 69.05-28.279 44.627-.393 53.592-8.33 53.677-8.41 11.685-11.685 11.685-30.717-.012-42.414-5.519-5.518-26.812-19.271-40.169-27.275-9.475-5.677-12.555-17.959-6.878-27.435 5.676-9.475 17.957-12.554 27.433-6.88 6.077 3.64 36.944 22.351 47.898 33.305 27.293 27.291 27.294 71.7.001 98.994z"/></svg>