<svg id="Capa_1" enable-background="new 0 0 511.984 511.984" height="512" viewBox="0 0 511.984 511.984" width="512" xmlns="http://www.w3.org/2000/svg"><path d="m381.655 459.73c-.142.245.133-.25 0 0zm-251.326 0c.143.245-.133-.25 0 0zm381.653-321.514c.357 89.015-49.367 264.722-95.599 341.366-11.322 21.1-29.796 32.247-53.452 32.247-30.587 0-52.955-20.872-61.399-57.282-2.894-11.384-5.027-24.665-7.284-38.72-3.558-22.151-7.591-47.257-15.057-65.104-9.159-21.894-18.642-21.894-23.199-21.894s-14.04 0-23.199 21.894c-7.466 17.848-11.499 42.953-15.057 65.104-2.257 14.055-4.391 27.336-7.284 38.72-8.444 36.41-30.812 57.282-61.399 57.282-23.656 0-42.13-11.147-53.452-32.247-46.231-76.642-95.957-252.353-95.599-341.366.666-121.643 127.928-176.571 219.454-108.445 32.238 21.202 40.847 21.191 73.072 0 91.626-68.184 218.817-13.075 219.454 108.445zm-39.998-.464c1.625-52.489-40.184-98.771-93.038-97.923-27.388-.001-45.696 11.547-65.077 23.773-43.126 29.464-72.671 29.43-115.754-.001-19.382-12.225-37.689-23.773-65.078-23.773-52.84-.845-94.673 45.434-93.037 97.924 1.019 87.868 44.916 244.343 90.329 321.978 4.381 8.277 9.757 12.099 18.724 12.099 4.053 0 16.384 0 22.472-26.48.036-.158 4.594-22.639 6.719-35.865 3.911-24.354 8.345-51.958 17.648-74.198 25.29-62.465 94.87-62.532 120.201 0 9.304 22.24 13.737 49.844 17.648 74.198 2.125 13.227 6.683 35.707 6.719 35.865 6.088 26.48 18.419 26.48 22.472 26.48 8.967 0 14.343-3.821 18.724-12.099 45.412-77.634 89.31-234.11 90.328-321.978zm-262.817-25.898c32.766 30.377 25.382 86.99-13.838 108.24-3.181 20.048-17.183 36.249-36.537 42.329-24.341 7.765-52.061-3.823-63.419-27.322-8.052-16.527-7.072-35.663 2.609-51.247-.01-.06-.028-.139-.061-.231-3.019-8.469-4.309-17.354-3.835-26.408 1.82-34.778 30.513-63.039 65.322-64.338 18.664-.689 36.334 6.043 49.759 18.977zm-19.175 48.975c.348-15.461-13.669-28.915-29.092-27.979-14.317.534-26.12 12.155-26.868 26.456-.196 3.755.331 7.419 1.568 10.89 4.188 11.752 2.876 24.401-3.601 34.703-2.415 3.842-2.665 8.585-.668 12.685 2.734 5.611 9.529 8.547 15.473 6.679 5.719-1.796 8.412-6.556 9.026-10.411 1.937-12.161 9.179-22.588 19.869-28.609 8.817-4.967 14.293-14.321 14.293-24.414z"/></svg>