<svg id="Capa_1" enable-background="new 0 0 512 512" height="512" viewBox="0 0 512 512" width="512" xmlns="http://www.w3.org/2000/svg"><path d="m237 313.753c0 11.046-8.954 20-20 20-26.501-.98-26.494-39.024 0-40 11.046 0 20 8.954 20 20zm46-88c0 11.046 8.954 20 20 20 26.501-.98 26.494-39.024 0-40-11.046 0-20 8.954-20 20zm86 0c0 11.046 8.954 20 20 20 26.501-.98 26.494-39.024 0-40-11.046 0-20 8.954-20 20zm-152 154c-11.046 0-20 8.954-20 20 .98 26.501 39.024 26.494 40 0 0-11.046-8.954-20-20-20zm31 92h-128c-44.112 0-80-35.888-80-80v-164c0-44.112 35.888-80 80-80h272c42.775 0 77.926 33.376 80.024 75.984.543 11.033 9.968 19.542 20.959 18.992 11.032-.543 19.536-9.927 18.992-20.959-3.148-63.935-55.847-114.017-119.975-114.017h-272c-66.168 0-120 53.832-120 120v164c0 66.168 53.832 120 120 120h128c26.508-.983 26.488-39.026 0-40zm-117-92c-11.046 0-20 8.954-20 20 .98 26.501 39.024 26.494 40 0 0-11.046-8.954-20-20-20zm0-173c-11.046 0-20 8.954-20 20 .98 26.501 39.024 26.494 40 0 0-11.046-8.954-20-20-20zm0 87c-11.046 0-20 8.954-20 20 .98 26.501 39.024 26.494 40 0 0-11.046-8.954-20-20-20zm86-87c-11.046 0-20 8.954-20 20 .98 26.501 39.024 26.494 40 0 0-11.046-8.954-20-20-20zm115-127c11.046 0 20-8.954 20-20 0-11.028 8.972-20 20-20s20 8.972 20 20c0 11.046 8.954 20 20 20s20-8.954 20-20c-3.018-79.492-116.997-79.464-120 .001 0 11.045 8.954 19.999 20 19.999zm-230 0c11.046 0 20-8.954 20-20 0-11.028 8.972-20 20-20s20 8.972 20 20c0 11.046 8.954 20 20 20s20-8.954 20-20c-3.018-79.492-116.997-79.464-120 .001 0 11.045 8.954 19.999 20 19.999zm409.995 267.973c-.485 41.836-18.928 110.714-38.749 144.829-17.101 31.026-61.71 23.22-68.682-13.201-1.131-4.471-2.035-9.399-2.992-14.612-1.047-5.706-3.15-17.177-5.728-24.044-2.389 6.619-4.296 17.409-5.354 23.391-.964 5.449-1.875 10.601-3.057 15.271-6.974 36.424-51.585 44.211-68.677 13.199-20.358-35.019-39.281-103.905-39.756-144.834.098-59.12 64.255-86.689 108.264-53.732 2.774 1.772 6.936 4.431 8.485 4.748 1.55-.317 5.711-2.976 8.485-4.748 25.103-18.663 63.122-20.645 88.492 5.093 12.642 12.787 19.485 30.062 19.269 48.64zm-39.998-.464c.091-7.808-2.649-14.931-7.717-20.058-3.36-3.399-9.277-7.451-18.384-7.451-7.313 0-12.413 3.021-20.127 7.948-20.974 14.649-39.095 14.628-60.039-.001-7.714-4.927-12.814-7.948-20.127-7.948-7.264 0-13.964 2.732-18.868 7.693-5.077 5.137-7.825 12.174-7.736 19.815.366 31.618 14.952 87.009 30.569 118.187.507-2.521 1.011-5.373 1.533-8.326 1.911-10.805 4.077-23.05 8.646-33.689 15.23-35.909 56.83-35.832 72.244.148 4.668 10.738 6.93 23.065 8.925 33.942.513 2.796 1.009 5.497 1.501 7.902 15.107-30.528 29.206-85.801 29.58-118.162z"/></svg>