<svg id="Capa_1" enable-background="new 0 0 512 512" height="512" viewBox="0 0 512 512" width="512" xmlns="http://www.w3.org/2000/svg"><path d="m381.663 459.812c-.142.244.132-.25 0 0zm67.07-104.736c-10.401-3.717-21.848 1.7-25.565 12.101-12.854 35.955-27.593 68.854-41.504 92.635-4.381 8.277-9.757 12.098-18.724 12.098-4.053 0-16.384 0-22.472-26.48-.036-.158-4.594-22.639-6.719-35.865-3.911-24.354-8.345-51.958-17.649-74.198-25.288-62.465-94.87-62.532-120.199 0-9.305 22.24-13.738 49.844-17.649 74.198-2.125 13.227-6.683 35.707-6.72 35.865-6.087 26.48-18.418 26.48-22.471 26.48-8.967 0-14.343-3.821-18.724-12.099-45.413-77.635-89.31-234.111-90.329-321.978-1.625-52.489 40.184-98.771 93.038-97.923 50.896-1.107 74.063 44.836 122.954 46 22.641-.001 40.554-11.3 57.877-22.227 19.382-12.226 37.689-23.774 65.078-23.774 47.175 0 85.115 33.294 92.267 80.967 1.639 10.923 11.81 18.453 22.745 16.812 10.924-1.639 18.45-11.822 16.812-22.746-4.773-31.829-20.324-60.876-43.785-81.793-53.467-47.283-124.405-39.72-174.457-3.298-32.238 21.202-40.847 21.191-73.072 0-52.405-38.355-127.727-43.837-180.087 8.838-25.828 26.131-39.809 61.505-39.368 99.608-.357 89.015 49.367 264.72 95.598 341.364 11.321 21.102 29.795 32.249 53.453 32.249 30.585 0 52.953-20.872 61.398-57.277 2.895-11.385 5.027-24.668 7.285-38.725 3.559-22.151 7.591-47.257 15.057-65.104 9.159-21.894 18.642-21.894 23.199-21.894 4.558 0 14.04 0 23.199 21.894 7.466 17.848 11.498 42.953 15.057 65.104 2.257 14.055 4.391 27.336 7.284 38.72 8.444 36.41 30.812 57.282 61.399 57.282 23.657 0 42.13-11.146 53.451-32.245 15.278-26.188 30.641-60.417 44.442-99.022 3.719-10.402-1.698-21.848-12.099-25.567zm-318.396 104.735c.143.245-.132-.25 0 0zm375.791-157.033-28-27.945c-7.818-7.804-20.481-7.791-28.284.028-7.803 7.817-7.79 20.481.028 28.284l28 27.945c7.818 7.803 20.481 7.79 28.284-.028s7.791-20.482-.028-28.284zm-47.128-113.869c0 52.383-42.617 95-95 95-125.857-4.776-125.823-185.243.001-190 52.382 0 94.999 42.617 94.999 95zm-40 0c0-30.327-24.673-55-55-55-72.865 2.765-72.845 107.246.001 110 30.327 0 54.999-24.672 54.999-55z"/></svg>