<svg id="Capa_1" enable-background="new 0 0 512.102 512.102" height="512" viewBox="0 0 512.102 512.102" width="512" xmlns="http://www.w3.org/2000/svg"><path d="m20.086 345c11.046 0 20-8.954 20-20 0-98.2 32.596-151.038 63.562-185.706 2.432.463 4.939.706 7.504.706h175.935c2.842 0 5.615-.298 8.291-.864 19.776 21.737 40.012 48.933 50.448 86.25 2.974 10.638 14.01 16.847 24.646 13.875 10.638-2.975 16.85-14.01 13.875-24.647-12.615-45.111-37.204-77.953-59.235-102.228 1.281-3.921 1.975-8.11 1.975-12.459-.001-.179-.065-18.129-.065-39.927 0-33.084-26.916-60-60-60h-135.936c-33.084 0-60 26.916-60 60 0 21.875.064 39.894.065 40 0 4.604.782 9.03 2.22 13.149-33.625 37.838-73.285 100.043-73.285 211.851 0 11.046 8.954 20 20 20zm111-305h135.934c11.028 0 20 8.972 20 20 0 21.875.064 39.894.065 40l-175.935-.073c-.001-.179-.065-18.129-.065-39.927.001-11.028 8.972-20 20.001-20zm145.934 452c0 11.046-8.954 20-20 20h-206.911c-15.342 0-29.615-6.891-39.161-18.904-9.537-12.005-13.021-27.452-9.557-42.38 12.062-51.983 46.346-95.965 94.06-120.665 17.914-9.276 40.121-5.423 53.999 9.37 13.887 14.792 46.263 30.084 71.742 15.665 9.897-4.911 21.896-.872 26.808 9.021 4.911 9.894.873 21.896-9.021 26.808-40.622 22.268-92.799 3.801-118.702-24.127-1.691-1.801-4.339-2.3-6.437-1.215-37.291 19.306-64.075 53.634-73.484 94.185-.945 4.075.791 7.047 1.91 8.456 1.124 1.414 3.638 3.787 7.843 3.787h206.911c11.046-.001 20 8.953 20 19.999zm12.948-296.779c10.371 3.801 15.697 15.289 11.896 25.66-35.608 98.768-175.208 98.302-209.635-1.217-3.682-10.414 1.777-21.84 12.191-25.521 10.414-3.68 21.842 1.777 25.521 12.192 22.29 64.362 111.358 64.51 134.365.783 3.801-10.371 15.289-15.697 25.662-11.897zm202.779 104.11c-25.4-25.76-63.418-23.733-88.491-5.092-2.774 1.772-6.936 4.431-8.485 4.748-1.55-.317-5.712-2.976-8.486-4.748-25.314-18.822-63.472-20.545-88.978 5.335-12.65 12.799-19.499 29.986-19.285 48.397.475 40.929 19.396 109.813 39.754 144.832 17.103 31.023 61.705 23.217 68.68-13.199 1.181-4.669 2.092-9.819 3.055-15.267 1.06-5.989 2.971-16.799 5.363-23.417 2.538 6.725 4.589 17.898 5.721 24.068.956 5.213 1.86 10.142 2.991 14.612 6.97 36.428 51.587 44.218 68.68 13.202 19.821-34.111 38.265-102.991 38.751-144.832.213-18.576-6.629-35.851-19.27-48.639zm-50.31 166.341c-2.735-13.663-4.631-28.445-10.426-41.844-15.381-35.93-56.983-36.108-72.245-.146-4.569 10.64-6.734 22.886-8.646 33.69-.522 2.952-1.026 5.804-1.533 8.323-15.616-31.178-30.202-86.568-30.568-118.188-.089-7.641 2.658-14.677 7.735-19.814 4.904-4.961 11.605-7.693 18.869-7.693 7.313 0 12.412 3.021 20.126 7.948 20.974 14.649 39.096 14.628 60.04-.001 7.714-4.927 12.813-7.948 20.126-7.948 9.106 0 15.023 4.052 18.383 7.451 5.068 5.127 7.81 12.25 7.719 20.057-.375 32.363-14.473 87.636-29.58 118.165z"/></svg>