<svg id="Capa_1" enable-background="new 0 0 512 512" height="512" viewBox="0 0 512 512" width="512" xmlns="http://www.w3.org/2000/svg"><path d="m295.074 464.937c-.143.244.132-.25 0 0zm-185.92 0c.143.244-.132-.25 0 0zm187.781-356.937c-31.337 0-52.232 13.393-69.022 24.154-6.811 4.365-12.692 8.135-18.013 10.192-10.302 3.984-15.424 15.565-11.439 25.868 3.982 10.302 15.564 15.423 25.867 11.44 9.081-3.512 17.26-8.754 25.169-13.823 14.307-9.169 27.82-17.831 47.438-17.831 17.979 0 34.685 6.885 47.041 19.386 13.213 13.366 20.362 31.657 20.132 51.502-.778 67.139-34.327 186.714-69.034 246.049-2.845 5.375-5.929 7.063-10.489 7.063-2.459 0-8.992 0-12.869-16.869-.037-.159-3.514-17.388-5.142-27.586-3.056-19.147-6.519-40.849-13.89-58.618-20.8-52.298-80.305-52.355-101.141 0-7.371 17.77-10.834 39.471-13.89 58.618-1.627 10.198-5.104 27.427-5.142 27.586-3.876 16.869-10.409 16.869-12.868 16.869-4.561 0-7.645-1.688-10.489-7.063-34.707-59.335-68.256-178.91-69.034-246.049-.321-27.632 14.212-52.153 37.928-63.994 23.276-12.719 6.269-46.746-17.867-35.787-18.072 9.023-33.248 23.05-43.887 40.566-10.826 17.824-16.418 38.461-16.172 59.679.855 73.771 36.246 200.14 74.306 265.439 9.579 17.802 25.205 27.209 45.215 27.209 25.888 0 44.756-17.371 51.798-47.67 6.01-23.855 7.984-58.032 17.05-80.076 5.913-14.254 11.12-14.254 13.623-14.254s7.71 0 13.623 14.254c9.066 22.046 11.039 56.219 17.05 80.075 7.042 30.3 25.91 47.671 51.798 47.671 20.011 0 35.636-9.404 45.215-27.207 38.062-65.296 73.451-191.665 74.307-265.441.354-30.617-10.896-59.059-31.683-80.086-19.929-20.162-46.739-31.266-75.489-31.266zm180.179-108h-82c-12.785 0-23.99 6.89-30.099 17.152-84.671 2.514-158.27 19.08-209.999 79.65-49.602 61.637-57.913 136.652-58.903 224.198.001 11.046 8.955 20 20.001 20s20-8.954 20-20c2.06-181.066 49.536-258.389 231.878-263.901 6.423 7.869 16.195 12.901 27.122 12.901h82c46.38-1.765 46.345-68.251 0-70z"/></svg>